# xmcd CD database file
#
# Track frame offsets:
#	150
#	36160
#	57569
#	90862
#	109920
#	157946
#	193654
#
# Disc length: 2839 seconds
#
# Revision: 0
# Processed by: cddbd v1.5.2PL0 Copyright (c) Steve Scherf et al.
# Submitted via: CDex 1.51
#
DISCID=520b1507
DTITLE=Weather Report - I Sing The Body Electric
DYEAR=1972
DGENRE=Jazz
TTITLE0=Unknown Soldier
TTITLE1=The Moors
TTITLE2=Crystal
TTITLE3=Second Sunday In August
TTITLE4=Medly: Vertical Invader, T.H., Dr.Honoris Causa
TTITLE5=Surucucú
TTITLE6=Directions
EXTD=YEAR: 1972
EXTT0=
EXTT1=
EXTT2=
EXTT3=
EXTT4=
EXTT5=
EXTT6=
PLAYORDER=
